<?xml version="1.0" encoding="utf-8"?>
<!-- Generator: Adobe Illustrator 26.0.3, SVG Export Plug-In . SVG Version: 6.00 Build 0)  -->
<svg version="1.1" id="Layer_1" xmlns="http://www.w3.org/2000/svg" xmlns:xlink="http://www.w3.org/1999/xlink" x="0px" y="0px"
	 viewBox="0 0 72 72" style="enable-background:new 0 0 72 72;" xml:space="preserve">
<style type="text/css">
	.st0{fill-rule:evenodd;clip-rule:evenodd;fill:#FFFFFF;}
</style>
<path class="st0" d="M36,0C16.1,0,0,16.1,0,36s16.1,36,36,36s36-16.1,36-36S55.9,0,36,0z M25,57h-9.1V27.7H25V57z M20.4,23.8
	c-3,0-5.4-2.4-5.4-5.4c0-3,2.4-5.4,5.4-5.4c3,0,5.4,2.4,5.4,5.4C25.7,21.4,23.3,23.8,20.4,23.8z M59,57h-9V41.6
	c0-4.2-1.6-6.6-4.9-6.6c-3.6,0-5.5,2.5-5.5,6.6V57h-8.7V27.7h8.7v4c0,0,2.6-4.8,8.8-4.8c6.2,0,10.7,3.8,10.7,11.7V57z"/>
</svg>
