<svg width="232" height="91" viewBox="0 0 232 91" fill="none" xmlns="http://www.w3.org/2000/svg">
<path d="M72.7753 20.5219C73.6349 20.5219 74.4751 20.2668 75.1896 19.7891C75.9041 19.3113 76.4608 18.6323 76.7892 17.838C77.1175 17.0437 77.2029 16.1698 77.0344 15.3269C76.8658 14.4841 76.451 13.7102 75.8424 13.1032C75.2339 12.4963 74.4589 12.0835 73.6156 11.9173C72.7723 11.751 71.8986 11.8386 71.1052 12.1691C70.3118 12.4997 69.6342 13.0581 69.1584 13.7739C68.6825 14.4897 68.4297 15.3306 68.432 16.1901C68.432 16.7599 68.5444 17.3242 68.7629 17.8505C68.9813 18.3768 69.3014 18.8548 69.7049 19.2572C70.1083 19.6596 70.5872 19.9784 71.1141 20.1955C71.641 20.4125 72.2055 20.5234 72.7753 20.5219Z" fill="#B1CA4B"/>
<path d="M76.1714 24.334V47.9566H84.9505V53.3396H54.0214C54.2333 52.3683 54.3379 51.3766 54.3332 50.3824C54.3358 49.5682 54.2584 48.7557 54.1022 47.9566H69.6795V24.334H76.1714Z" fill="#B1CA4B"/>
<path d="M63.2971 26.1706C63.1816 25.5468 63.0315 24.9461 62.8697 24.3339C61.3414 18.6005 58.2478 13.4055 53.9351 9.33015C49.6224 5.25479 44.2608 2.45987 38.4502 1.25812C32.6395 0.0563667 26.6091 0.495196 21.0337 2.5255C15.4582 4.55581 10.5577 8.09749 6.88045 12.7543C3.2032 17.4111 0.894294 22.9992 0.212065 28.8935C-0.470163 34.7877 0.501208 40.7556 3.01749 46.1292C5.53377 51.5028 9.49569 56.0703 14.4599 59.3205C19.4242 62.5708 25.1949 64.3755 31.1265 64.5328C31.7733 64.5328 32.4318 64.6137 33.1133 64.6137C35.6831 64.6284 38.2358 64.1945 40.6564 63.3315C43.6343 62.3214 46.2174 60.3972 48.0377 57.833C49.5199 55.6339 50.2938 53.034 50.2556 50.3824C50.2657 49.1296 50.0826 47.8828 49.7127 46.6859C49.3817 45.6186 48.8868 44.6093 48.2457 43.6941C47.0654 42.1124 45.561 40.8009 43.833 39.8475C42.6095 39.1419 41.3353 38.528 40.021 38.0108L36.3593 36.5784L31.7387 34.7764C30.4761 34.3631 29.2841 33.7593 28.204 32.9859C27.5274 32.4693 26.9874 31.795 26.631 31.0219C26.2746 30.2488 26.1127 29.4002 26.1594 28.5502C26.1573 27.964 26.239 27.3806 26.4019 26.8175C26.5747 26.206 26.8565 25.6308 27.2336 25.1194L28.7007 23.7333C30.4276 22.7244 32.409 22.235 34.4071 22.324C35.021 22.3261 35.6343 22.3647 36.2437 22.4395C39.0552 22.7342 41.6549 24.0691 43.5327 26.1822C44.7648 27.5656 45.6794 29.2018 46.2126 30.976H48.1532V16.3403H39.663V17.4955C38.2908 16.9886 36.8575 16.6662 35.4005 16.5367C34.5592 16.3733 33.7046 16.2882 32.8476 16.2826C32.143 16.2826 31.4153 16.2826 30.676 16.4212C22.0586 16.9757 16.1096 22.3355 16.1096 29.3819C16.062 31.8667 16.8243 34.2994 18.2813 36.3127C20.196 38.6955 22.7536 40.4794 25.6511 41.4531L33.8988 44.6875C35.2916 45.1597 36.6042 45.8413 37.7916 46.709C38.5908 47.2663 39.2264 48.0271 39.6326 48.9126C40.0388 49.7982 40.2008 50.7762 40.1019 51.7454C39.8824 53.7669 37.7223 56.7356 31.2189 56.3082C29.0668 56.133 26.9467 55.6787 24.9118 54.9567C22.692 54.1706 20.5985 53.0655 18.6971 51.6761L15.7631 49.181C10.9346 44.3987 8.02364 39.7782 8.02364 32.5701C7.94488 29.3718 8.50562 26.1901 9.67297 23.2114C10.8403 20.2328 12.5908 17.5173 14.8216 15.2242C17.0525 12.9311 19.7188 11.1067 22.6642 9.85783C25.6096 8.609 28.7748 7.96095 31.974 7.95172C35.1732 7.94249 38.342 8.57226 41.2946 9.80408C44.2471 11.0359 46.9239 12.8449 49.168 15.1251C51.412 17.4053 53.1781 20.1107 54.3626 23.0825C55.5472 26.0543 56.1263 29.2328 56.066 32.4315C56.066 38.727 54.1138 41.8459 51.815 43.0934C51.9883 43.2898 52.1616 43.4862 52.3117 43.6941C52.9479 44.6173 53.4352 45.6346 53.7557 46.709H60.571C62.8952 42.3526 64.0606 37.4719 63.9556 32.5354C63.9514 30.397 63.7308 28.2646 63.2971 26.1706Z" fill="#B1CA4B"/>
<path d="M122.123 32.4893V51.5144H126.305V53.3396H115.596V31.2879C115.596 29.0931 115.169 26.3208 112.72 26.3208C110.271 26.3208 108.261 29.509 107.765 32.8473C107.657 33.7328 107.603 34.6238 107.603 35.5157V53.328H101.123V31.2879C101.123 29.0931 100.707 26.3208 98.2578 26.3208C95.8089 26.3208 93.7527 29.509 93.2907 32.8589C93.1835 33.7443 93.1295 34.6354 93.1289 35.5273V53.3396H86.6486V38.7155C86.6486 32.0156 86.071 29.0931 83.9802 24.334H90.68C91.4013 25.9348 91.9774 27.5972 92.4012 29.3011C92.9687 27.6672 94.0362 26.2534 95.4523 25.2602C96.8685 24.2671 98.5613 23.745 100.291 23.7679C103.895 23.7679 106.067 25.2234 107.141 28.7235C107.779 27.2357 108.843 25.9707 110.201 25.0885C111.558 24.2063 113.146 23.7468 114.765 23.7679C119.108 23.7679 121.453 26.2746 121.984 30.1905C122.084 30.9526 122.13 31.7207 122.123 32.4893Z" fill="#B1CA4B"/>
<path d="M145.93 39.2351C145.93 47.8063 142.742 52.6117 138.307 52.6117C136.53 52.4509 134.88 51.6259 133.686 50.3014V31.0221C134.726 28.3653 136.193 25.6969 139.069 25.6969C141.541 25.6969 145.93 28.4115 145.93 39.2351ZM127.229 38.7153V63.2736H122.608V65.0988H138.237V63.2736H133.674V54.0325C135.349 54.7178 137.145 55.0558 138.953 55.0259C144.175 55.0259 152.376 51.0522 152.376 39.6048C152.376 27.7877 144.902 23.8256 139.104 23.8256C134.09 23.8256 132.046 26.4362 132.046 26.4362C131.792 25.7546 131.526 25.0269 131.214 24.3916H124.526C126.651 29.093 127.229 32.0155 127.229 38.7153Z" fill="#B1CA4B"/>
<path d="M164.655 54.9682C160.557 54.9087 156.605 53.431 153.474 50.7866V42.2617H155.31C155.31 47.3327 157.921 51.0985 163.396 51.0985C167.324 51.0985 169.253 49.1579 169.253 46.6512C169.253 43.8326 167.162 42.8392 165.233 42.1115L159.896 40.0207C156.5 38.7154 153.728 36.4051 153.728 32.1773C153.728 27.3719 158.013 23.7679 164.182 23.7679C165.815 23.7069 167.445 23.9538 168.987 24.4956V23.7679H174.474V33.2169H173.18C172.712 31.5674 171.707 30.1215 170.324 29.1086C168.94 28.0957 167.258 27.5739 165.545 27.626C161.941 27.626 160.243 29.3818 160.243 31.6921C160.243 34.245 162.068 35.0305 163.847 35.712L169.172 37.8028C172.048 38.958 175.768 40.9448 175.768 45.7964C175.745 51.5721 170.72 54.9682 164.655 54.9682Z" fill="#B1CA4B"/>
<path d="M195.925 39.3855C195.925 43.671 195.243 51.1448 189.294 51.1448C183.345 51.1448 182.652 43.671 182.652 39.3855C182.652 35.0999 183.38 25.7432 189.294 25.7432C195.209 25.7432 195.925 35.1576 195.925 39.3855ZM202.405 39.3855C202.405 27.7301 195.474 23.7679 189.294 23.7679C183.114 23.7679 176.172 27.7301 176.172 39.3855C176.172 51.6184 183.542 54.9683 189.294 54.9683C195.047 54.9683 202.405 51.6184 202.405 39.3855Z" fill="#B1CA4B"/>
<path d="M232 51.5144V53.3395H217.26V51.5144H221.396V31.8077C221.393 31.1422 221.339 30.478 221.234 29.8209C220.922 27.938 219.825 26.1129 217.318 26.1129C213.183 26.1129 210.884 30.7334 210.884 35.5735V51.5144H214.026V53.3395H204.404V38.7154C204.404 32.0156 203.838 29.0931 201.747 24.3339H208.435C209.156 25.9348 209.732 27.5971 210.156 29.301C210.984 27.5739 212.301 26.1283 213.945 25.1445C215.588 24.1606 217.484 23.6819 219.397 23.7679C224.157 23.7679 227.183 26.0089 227.761 30.4562C227.857 31.1647 227.911 31.8783 227.922 32.5932V51.5144H232Z" fill="#B1CA4B"/>
<path d="M64.493 81.3633C64.1543 81.7584 63.737 82.0786 63.2676 82.3034C62.7982 82.5281 62.2871 82.6525 61.7669 82.6686C59.6645 82.6686 58.4747 80.959 58.4747 77.8401C58.4747 74.7212 59.6299 73.0116 61.7669 73.0116C62.801 73.0662 63.7757 73.5122 64.493 74.2592V81.3633ZM67.9584 64.7292H64.493V71.8218H64.4352C63.9773 71.3233 63.425 70.9206 62.8103 70.6371C62.1956 70.3535 61.5308 70.1948 60.8543 70.17C57.0539 70.17 54.9515 73.8087 54.9515 77.4474C54.9515 82.0679 56.9384 85.5333 60.8543 85.5333C61.6171 85.5181 62.3682 85.3426 63.0587 85.0182C63.7493 84.6938 64.3639 84.2278 64.8626 83.6505L65.0359 85.2446H68.0162L67.9584 64.7292Z" fill="#E0E1E5"/>
<path d="M78.5741 76.015C78.5741 73.9704 79.7292 72.7806 81.4157 72.7806C83.1022 72.7806 84.1881 73.9358 84.2458 76.015H78.5741ZM87.4918 78.3946V76.9507C87.4918 73.4044 85.3317 70.1353 81.4735 70.1584C77.6153 70.1815 75.0509 73.1387 75.0509 77.8286C75.0509 82.5185 77.4652 85.4987 81.3002 85.4987C84.1419 85.4987 86.1287 84.5862 87.4918 82.4838L84.9274 80.8897C84.5709 81.4368 84.0825 81.8854 83.5072 82.1942C82.9319 82.5031 82.2881 82.6622 81.6352 82.6571C79.9949 82.6571 78.6318 81.5019 78.5741 78.3946H87.4918Z" fill="#E0E1E5"/>
<path d="M102.104 74.34C101.777 73.9058 101.364 73.5434 100.891 73.2751C100.419 73.0069 99.8957 72.8386 99.3551 72.7805C97.9921 72.7805 97.3683 73.3465 97.3683 74.2245C97.3683 76.7542 104.75 75.6684 104.75 81.0629C104.75 84.1356 102.439 85.4986 99.3205 85.4986C98.2118 85.5197 97.1161 85.257 96.1376 84.7354C95.1591 84.2137 94.3301 83.4506 93.7296 82.5184L96.0399 80.751C96.4003 81.3611 96.9045 81.8737 97.5086 82.2442C98.1126 82.6147 98.7981 82.8317 99.5053 82.8765C100.753 82.8765 101.608 82.2065 101.608 81.2015C101.608 78.6833 94.2263 79.5843 94.2263 74.4555C94.2263 71.6947 96.5366 70.1584 99.101 70.1584C100.083 70.1424 101.057 70.3409 101.955 70.7399C102.853 71.1389 103.653 71.7288 104.299 72.4686L102.104 74.34Z" fill="#E0E1E5"/>
<path d="M115.966 85.2098H112.501V70.4471H115.966V85.2098ZM112.501 67.721V64.4288H115.966V67.721H112.501Z" fill="#E0E1E5"/>
<path d="M128.765 84.9211C132.173 84.9211 133.224 85.9492 133.224 86.6307C133.224 87.139 132.461 88.271 130.186 88.271C127.229 88.271 126.27 87.7627 126.27 86.6307C126.27 85.9838 126.836 84.9211 128.765 84.9211ZM131.838 75.2179C131.849 75.7171 131.71 76.2082 131.439 76.6277C131.169 77.0472 130.778 77.3757 130.319 77.5709C129.859 77.7661 129.351 77.8189 128.862 77.7225C128.372 77.6262 127.922 77.385 127.571 77.0303C127.219 76.6755 126.982 76.2235 126.891 75.7327C126.799 75.2419 126.857 74.7349 127.056 74.2772C127.256 73.8195 127.588 73.4322 128.01 73.1654C128.432 72.8986 128.924 72.7645 129.423 72.7806C129.742 72.7806 130.058 72.8438 130.353 72.9665C130.647 73.0893 130.914 73.2692 131.139 73.4958C131.363 73.7225 131.541 73.9913 131.661 74.2869C131.781 74.5825 131.841 74.8989 131.838 75.2179ZM136.551 70.1584C135.909 70.066 135.254 70.1384 134.648 70.3687C134.041 70.5991 133.504 70.9799 133.085 71.4753C132.053 70.6423 130.772 70.1787 129.447 70.1584C125.611 70.1584 123.671 72.7228 123.671 75.2988C123.697 76.0782 123.908 76.8401 124.288 77.5212C124.668 78.2023 125.205 78.7829 125.854 79.2147C125.207 79.4226 123.544 80.4969 123.544 81.9177C123.544 83.5118 125.057 83.8815 125.739 84.2973V84.3551C125.38 84.3451 125.024 84.4092 124.692 84.5435C124.36 84.6777 124.059 84.8791 123.809 85.1351C123.558 85.3911 123.363 85.6961 123.236 86.031C123.109 86.3659 123.053 86.7234 123.07 87.0812C123.07 89.3915 125.681 90.6044 129.654 90.6044C134.367 90.6044 136.493 88.2941 136.493 86.2264C136.493 80.3236 126.79 83.558 126.79 81.1784C126.79 80.3236 128.003 80.2659 129.539 80.2659C133.235 80.2659 135.107 78.279 135.107 75.4951C135.128 74.562 134.848 73.6468 134.31 72.8845C135.04 72.5828 135.834 72.4677 136.62 72.5495L136.551 70.1584Z" fill="#E0E1E5"/>
<path d="M143.25 85.2098V70.4471H146.485V72.0412C147.763 70.968 149.339 70.311 151.001 70.1583C153.959 70.1583 155.368 72.099 155.368 75.1023V85.2098H151.903V75.5875C151.903 73.6006 151.279 72.9769 150.077 72.9769C149.45 72.994 148.834 73.1415 148.267 73.41C147.7 73.6784 147.196 74.062 146.785 74.5363V85.1867L143.25 85.2098Z" fill="#E0E1E5"/>
</svg>
